Coordinates
version=1
nRows=37
nColumns=34
inDegrees=no

Units are S.I. units (second, meters, Newtons, ...)
If the header above contains a line with 'inDegrees', this indicates whether rotational values are in degrees (yes) or radians (no).

endheader
time	pelvis_tilt	pelvis_list	pelvis_rotation	pelvis_tx	pelvis_ty	pelvis_tz	hip_flexion_r	hip_adduction_r	hip_rotation_r	knee_angle_r	ankle_angle_r	subtalar_angle_r	mtp_angle_r	hip_flexion_l	hip_adduction_l	hip_rotation_l	knee_angle_l	ankle_angle_l	subtalar_angle_l	mtp_angle_l	lumbar_extension	lumbar_bending	lumbar_rotation	arm_flex_r	arm_add_r	arm_rot_r	elbow_flex_r	pro_sup_r	arm_flex_l	arm_add_l	arm_rot_l	elbow_flex_l	pro_sup_l
0	-0.169639	-0.0565541	0.000683431	-0.153629	1.03658	-0.647561	0.181328	-0.124585	-0.290858	0.120257	0.162855	0.113199	-0.117834	0.236575	-0.244421	-0.343979	0.212161	0.282547	0.362275	-0.117835	0.0687352	0.0970685	-0.0371994	-0.238095	-0.145846	-0.207999	0.665291	1.51806	-0.238459	-0.104679	-0.0411689	0.582468	1.43745
0.01	-0.177116	-0.0575686	-0.000361211	-0.154979	1.03598	-0.647501	0.196695	-0.125036	-0.289104	0.131744	0.164733	0.107098	-0.117834	0.250994	-0.246673	-0.336775	0.221327	0.282316	0.351513	-0.117835	0.072935	0.100059	-0.0347424	-0.239178	-0.147351	-0.210103	0.668327	1.51521	-0.237978	-0.103935	-0.0444925	0.587253	1.44089
0.02	-0.184662	-0.0581575	-0.00152107	-0.156478	1.03532	-0.647406	0.213376	-0.126078	-0.286735	0.145254	0.166934	0.100452	-0.117834	0.266126	-0.248559	-0.329207	0.23151	0.28209	0.339955	-0.117835	0.0766411	0.102739	-0.0321444	-0.239959	-0.148877	-0.212295	0.671589	1.51339	-0.237391	-0.103376	-0.0474886	0.592738	1.44374
0.03	-0.192281	-0.0583059	-0.00279483	-0.158128	1.03459	-0.647276	0.231383	-0.127722	-0.283706	0.160798	0.169454	0.0932021	-0.117834	0.281977	-0.250064	-0.32128	0.242714	0.28187	0.327605	-0.117834	0.0798585	0.10509	-0.0294084	-0.240441	-0.150421	-0.214567	0.675091	1.51259	-0.236701	-0.103007	-0.0501575	0.598923	1.44598
0.04	-0.199983	-0.0579879	-0.00417516	-0.159931	1.03377	-0.647109	0.250734	-0.129983	-0.279933	0.178383	0.172285	0.0852366	-0.117834	0.298569	-0.251167	-0.313011	0.254958	0.281661	0.314497	-0.117834	0.0825966	0.107076	-0.0265449	-0.240639	-0.151975	-0.216897	0.678879	1.51277	-0.235907	-0.102839	-0.052501	0.605797	1.44763
0.05	-0.207777	-0.0571899	-0.0056436	-0.161887	1.03286	-0.646904	0.271415	-0.132849	-0.275337	0.197962	0.175403	0.0764478	-0.117834	0.315942	-0.25187	-0.304434	0.268296	0.28148	0.300721	-0.117834	0.0848651	0.10867	-0.0235765	-0.240586	-0.153529	-0.219257	0.683055	1.51387	-0.235007	-0.102883	-0.0545287	0.61333	1.44871
0.06	-0.215666	-0.0559338	-0.00716851	-0.163998	1.03183	-0.646659	0.293354	-0.136254	-0.269875	0.219396	0.178761	0.0667741	-0.117834	0.334148	-0.252219	-0.295599	0.282804	0.281369	0.28643	-0.117834	0.0866674	0.109878	-0.0205406	-0.240339	-0.155073	-0.221618	0.687771	1.51575	-0.233994	-0.103142	-0.0562679	0.621462	1.44928
0.07	-0.223646	-0.0542861	-0.0087052	-0.166263	1.03067	-0.646374	0.316411	-0.14007	-0.263558	0.242431	0.182286	0.0561977	-0.117834	0.353241	-0.252306	-0.286545	0.298572	0.281382	0.271808	-0.117834	0.088003	0.11075	-0.0174904	-0.239968	-0.156598	-0.223959	0.693219	1.51828	-0.232858	-0.103611	-0.0577716	0.630099	1.44945
0.08	-0.231712	-0.0523509	-0.0101964	-0.168677	1.02936	-0.646046	0.340386	-0.14412	-0.256445	0.266716	0.185881	0.0447314	-0.117834	0.373271	-0.252255	-0.277284	0.315669	0.281585	0.257044	-0.117834	0.0888749	0.111376	-0.0144935	-0.239561	-0.158102	-0.22626	0.699604	1.52129	-0.231586	-0.10427	-0.0591169	0.639112	1.44935
0.09	-0.239861	-0.0502549	-0.0115744	-0.171235	1.02788	-0.645679	0.365045	-0.148209	-0.248651	0.291834	0.189454	0.0324216	-0.117834	0.394277	-0.25219	-0.26781	0.334123	0.282051	0.242322	-0.117834	0.0892987	0.111875	-0.0116264	-0.239206	-0.159601	-0.228497	0.707113	1.52455	-0.230156	-0.105082	-0.0603985	0.648337	1.44911
0.1	-0.248102	-0.0481332	-0.0127686	-0.173929	1.02624	-0.645278	0.39015	-0.152145	-0.240339	0.317354	0.192931	0.0193596	-0.117834	0.416272	-0.25223	-0.258117	0.353894	0.282851	0.227836	-0.117834	0.0893087	0.112383	-0.00896547	-0.238994	-0.161127	-0.230638	0.715891	1.52783	-0.228538	-0.105988	-0.0617213	0.657578	1.44882
0.11	-0.256456	-0.046116	-0.0137168	-0.17675	1.02441	-0.64485	0.415488	-0.155766	-0.231708	0.342879	0.196279	0.00568527	-0.117834	0.43924	-0.252471	-0.248244	0.374865	0.284057	0.213815	-0.117834	0.0889623	0.113037	-0.00657712	-0.238994	-0.162733	-0.232643	0.726	1.5309	-0.226697	-0.106912	-0.0631918	0.666626	1.44855
0.12	-0.264964	-0.0443135	-0.014375	-0.179688	1.02239	-0.6444	0.440912	-0.158953	-0.222964	0.368089	0.199506	-0.00841521	-0.117834	0.463136	-0.252989	-0.238288	0.396832	0.285723	0.200522	-0.117834	0.0883484	0.113957	-0.0045137	-0.239241	-0.164482	-0.234472	0.737396	1.5335	-0.224598	-0.107763	-0.0649112	0.675271	1.44835
0.13	-0.273698	-0.0428016	-0.0147248	-0.182733	1.02017	-0.643935	0.46636	-0.161644	-0.214305	0.392768	0.202662	-0.0227191	-0.117834	0.487899	-0.253821	-0.228406	0.419522	0.28788	0.18824	-0.117834	0.0875961	0.115227	-0.0028138	-0.239721	-0.166441	-0.236085	0.749907	1.53542	-0.222219	-0.108446	-0.0669754	0.683318	1.44826
0.14	-0.282757	-0.0416144	-0.0147763	-0.185878	1.01775	-0.643458	0.491864	-0.163836	-0.205895	0.416803	0.205829	-0.0369811	-0.117834	0.513461	-0.254971	-0.218791	0.442612	0.290527	0.177231	-0.117834	0.0868744	0.116887	-0.0015034	-0.240365	-0.16866	-0.237462	0.763241	1.53647	-0.219558	-0.108868	-0.0694808	0.690603	1.44837
0.15	-0.292259	-0.0407457	-0.0145668	-0.189112	1.01512	-0.642971	0.517518	-0.165575	-0.197862	0.440162	0.209099	-0.050948	-0.117834	0.539752	-0.256407	-0.209635	0.465768	0.293627	0.167689	-0.117834	0.0863737	0.118928	-0.000595619	-0.241059	-0.171169	-0.238612	0.777007	1.53656	-0.216638	-0.108957	-0.072517	0.69701	1.44879
0.16	-0.302302	-0.0401553	-0.0141518	-0.192428	1.0123	-0.642474	0.543425	-0.166943	-0.190299	0.462846	0.212556	-0.0643706	-0.117834	0.566687	-0.258069	-0.20109	0.488676	0.29711	0.1597	-0.117834	0.0862681	0.1213	-8.97414e-05	-0.241655	-0.173961	-0.239597	0.790759	1.53574	-0.213506	-0.108673	-0.0761392	0.702488	1.44963
0.17	-0.312935	-0.0397753	-0.013593	-0.195817	1.00929	-0.641964	0.569647	-0.16805	-0.183273	0.48487	0.216259	-0.0770106	-0.117834	0.594143	-0.25987	-0.193245	0.511069	0.300886	0.15323	-0.117834	0.0866706	0.123918	2.89345e-05	-0.241991	-0.176997	-0.240536	0.804048	1.53418	-0.210227	-0.108017	-0.0803374	0.707066	1.45096
0.18	-0.324125	-0.0395175	-0.0129471	-0.19927	1.00612	-0.641442	0.596165	-0.169035	-0.176837	0.506259	0.220239	-0.0886387	-0.117834	0.621936	-0.261703	-0.186127	0.532741	0.304856	0.148141	-0.117834	0.0875913	0.126671	-0.000211993	-0.241911	-0.180202	-0.241601	0.816478	1.5322	-0.206863	-0.107026	-0.0850306	0.71085	1.45277
0.19	-0.335745	-0.0392868	-0.0122578	-0.202776	1.0028	-0.640905	0.622876	-0.170049	-0.171053	0.527059	0.224491	-0.0990334	-0.117834	0.649809	-0.263462	-0.17972	0.553542	0.308939	0.144244	-0.117834	0.088919	0.129437	-0.000775455	-0.241274	-0.183474	-0.242995	0.827754	1.53018	-0.203464	-0.105759	-0.0900923	0.714	1.45494
0.2	-0.347584	-0.038997	-0.0115532	-0.206327	0.999379	-0.640355	0.649598	-0.171249	-0.166001	0.547342	0.22898	-0.107979	-0.117834	0.677439	-0.265064	-0.174006	0.573372	0.3131	0.141363	-0.117834	0.0904297	0.132104	-0.00161757	-0.239979	-0.186701	-0.244919	0.837718	1.52852	-0.200059	-0.104282	-0.095379	0.716703	1.45728
0.21	-0.359377	-0.0385872	-0.0108499	-0.209912	0.995893	-0.639791	0.676105	-0.17277	-0.161787	0.567208	0.233649	-0.115276	-0.117834	0.704467	-0.266479	-0.168994	0.592181	0.317377	0.139397	-0.117834	0.0918249	0.13459	-0.00268705	-0.237968	-0.189774	-0.247525	0.846368	1.52752	-0.196664	-0.102667	-0.100744	0.719149	1.45948
0.22	-0.370857	-0.0380296	-0.0101615	-0.213521	0.992381	-0.639211	0.70217	-0.174705	-0.158522	0.586769	0.238416	-0.120775	-0.117834	0.730555	-0.267749	-0.164745	0.609968	0.321881	0.138347	-0.117834	0.0927924	0.136853	-0.00392189	-0.235252	-0.192605	-0.250881	0.853853	1.5273	-0.193287	-0.10099	-0.106042	0.721528	1.46118
0.23	-0.381802	-0.0373279	-0.00950632	-0.217143	0.988872	-0.63861	0.727607	-0.177092	-0.156286	0.606131	0.243179	-0.124421	-0.117834	0.755443	-0.268984	-0.161366	0.626788	0.326781	0.138295	-0.117834	0.0930691	0.13889	-0.00524796	-0.231909	-0.195142	-0.254955	0.860454	1.52783	-0.189947	-0.0993359	-0.111138	0.724033	1.46209
0.24	-0.392063	-0.0365084	-0.0089096	-0.220768	0.985387	-0.637978	0.752298	-0.179914	-0.155104	0.625378	0.247826	-0.126282	-0.117834	0.778987	-0.270343	-0.158978	0.642748	0.332262	0.139346	-0.117834	0.0924824	0.140728	-0.00658368	-0.228074	-0.197374	-0.259621	0.866531	1.529	-0.186674	-0.097794	-0.11592	0.726851	1.46208
0.25	-0.40157	-0.0356108	-0.00840063	-0.224388	0.981939	-0.637308	0.776186	-0.183105	-0.154938	0.644555	0.252248	-0.126546	-0.117834	0.801155	-0.271998	-0.157676	0.657994	0.338472	0.141554	-0.117834	0.0909516	0.142417	-0.0078482	-0.223923	-0.199333	-0.26468	0.872479	1.53069	-0.183511	-0.0964545	-0.120304	0.730164	1.46132
0.26	-0.410313	-0.0346872	-0.00801238	-0.227996	0.978531	-0.636589	0.799253	-0.186559	-0.155702	0.663663	0.256356	-0.125485	-0.117834	0.822015	-0.274117	-0.157486	0.672693	0.345471	0.144868	-0.117834	0.088469	0.144022	-0.00896757	-0.219638	-0.20109	-0.26989	0.878684	1.53274	-0.180504	-0.0954042	-0.124232	0.734127	1.46019
0.27	-0.418328	-0.0338082	-0.0077838	-0.231587	0.975159	-0.635811	0.821512	-0.190128	-0.157275	0.682664	0.260099	-0.123421	-0.117834	0.841714	-0.27685	-0.158344	0.687016	0.3532	0.149111	-0.117834	0.0850901	0.145629	-0.00987667	-0.215384	-0.202741	-0.275004	0.885473	1.53504	-0.177695	-0.0947222	-0.127671	0.73886	1.45923
0.28	-0.425703	-0.0330629	-0.00776075	-0.235157	0.971812	-0.634964	0.843009	-0.193619	-0.159505	0.701483	0.263469	-0.120703	-0.117834	0.860469	-0.280329	-0.16009	0.70112	0.36147	0.153993	-0.117834	0.0809278	0.147336	-0.0105184	-0.211287	-0.204377	-0.279817	0.893085	1.53753	-0.175114	-0.0944786	-0.130595	0.744434	1.45895
0.29	-0.432552	-0.0325364	-0.0079891	-0.238707	0.968477	-0.634036	0.863809	-0.19682	-0.162195	0.720016	0.266501	-0.117684	-0.117834	0.878528	-0.284637	-0.162491	0.715125	0.369987	0.159146	-0.117834	0.0761331	0.149233	-0.0108458	-0.207427	-0.206074	-0.284186	0.901639	1.54021	-0.172774	-0.0947329	-0.132973	0.75087	1.45971
0.3	-0.43899	-0.032269	-0.00849872	-0.242235	0.965138	-0.633019	0.883975	-0.199553	-0.165082	0.738147	0.269283	-0.114704	-0.117834	0.896115	-0.289761	-0.165276	0.729104	0.378408	0.164158	-0.117834	0.0708639	0.151352	-0.010831	-0.203829	-0.207875	-0.288028	0.911131	1.54307	-0.170663	-0.0955337	-0.134762	0.758127	1.46166
0.31	-0.445105	-0.0322238	-0.00928472	-0.245737	0.961783	-0.631911	0.903547	-0.201712	-0.167832	0.755752	0.271945	-0.112074	-0.117834	0.913376	-0.295547	-0.168161	0.743072	0.386426	0.168616	-0.117834	0.0652551	0.153642	-0.0104784	-0.200469	-0.209788	-0.291299	0.921443	1.54606	-0.168744	-0.0969149	-0.135916	0.766109	1.46472
0.32	-0.450948	-0.0322931	-0.0102967	-0.24921	0.958399	-0.630716	0.922524	-0.20327	-0.170057	0.772717	0.274647	-0.110089	-0.117834	0.930378	-0.301707	-0.170852	0.757005	0.393839	0.17215	-0.117834	0.0594041	0.155966	-0.0098344	-0.197287	-0.211787	-0.293973	0.932373	1.54906	-0.166957	-0.0988922	-0.136403	0.774683	1.46859
0.33	-0.456539	-0.0323401	-0.0114441	-0.252649	0.954979	-0.629442	0.940887	-0.204246	-0.171354	0.78895	0.277539	-0.109037	-0.117834	0.947136	-0.307876	-0.17304	0.770874	0.400595	0.174471	-0.117834	0.0533787	0.158153	-0.00898406	-0.194205	-0.213817	-0.296034	0.943683	1.55187	-0.165233	-0.101459	-0.136236	0.783701	1.47285
0.34	-0.46189	-0.0322489	-0.0126158	-0.256048	0.951511	-0.628101	0.958617	-0.204653	-0.171364	0.804407	0.280733	-0.10921	-0.117834	0.963665	-0.313692	-0.174403	0.784672	0.40679	0.17539	-0.117834	0.0472341	0.160052	-0.00803265	-0.19116	-0.215807	-0.297476	0.955142	1.55431	-0.16351	-0.104584	-0.135494	0.79303	1.47709
0.35	-0.467016	-0.0319524	-0.0137065	-0.259404	0.947984	-0.626701	0.975737	-0.204482	-0.169809	0.819112	0.28428	-0.110888	-0.117834	0.980013	-0.318855	-0.174633	0.798439	0.412613	0.174828	-0.117834	0.0410239	0.161561	-0.0070801	-0.188112	-0.217683	-0.298312	0.966571	1.55628	-0.161748	-0.108208	-0.13433	0.802572	1.481
0.36	-0.471945	-0.0314356	-0.0146382	-0.262719	0.94438	-0.625249	0.992325	-0.203697	-0.166526	0.833187	0.288172	-0.114304	-0.117834	0.996267	-0.323174	-0.17348	0.812265	0.418293	0.172818	-0.117834	0.0348018	0.162641	-0.00620154	-0.185063	-0.219385	-0.29858	0.977865	1.55779	-0.159937	-0.112252	-0.13296	0.812286	1.48441
